<svg version="1.1" id="Layer_1" xmlns="http://www.w3.org/2000/svg" xmlns:xlink="http://www.w3.org/1999/xlink" x="0px" y="0px"
	 width="100%" viewBox="0 0 277 92" enable-background="new 0 0 277 92" xml:space="preserve">
<path fill="#FCFDFD" opacity="1.000000" stroke="none" 
	d="
M229.000000,93.000000 
	C152.666687,93.000000 76.833389,93.000000 1.000061,93.000000 
	C1.000041,62.333370 1.000041,31.666742 1.000020,1.000086 
	C93.333260,1.000057 185.666519,1.000057 277.999817,1.000029 
	C277.999878,31.666586 277.999878,62.333172 277.999939,92.999878 
	C261.833344,93.000000 245.666672,93.000000 229.000000,93.000000 
M171.318527,65.641869 
	C170.230408,64.915276 169.235809,63.881516 168.037537,63.516769 
	C163.529053,62.144390 159.147980,62.339775 155.601486,65.883377 
	C152.592529,68.889877 152.054306,72.579399 153.795181,76.401756 
	C155.761063,80.718132 159.614182,82.211876 163.998810,81.924286 
	C166.738602,81.744583 169.420593,80.683525 172.611313,80.264214 
	C173.094299,80.502914 173.577301,80.741623 174.920563,81.219589 
	C176.381653,81.219589 177.842743,81.219589 179.936646,81.219589 
	C179.936646,77.422562 179.860962,73.959946 179.959747,70.502319 
	C180.044098,67.550117 181.575317,65.914825 184.659851,65.878212 
	C187.909561,65.839653 189.072250,67.717468 189.103775,70.622185 
	C189.141113,74.062416 189.112564,77.503372 189.112564,81.417313 
	C191.463104,81.309517 193.141327,81.232552 194.920105,81.150986 
	C194.920105,77.521820 195.102753,74.519508 194.880905,71.547401 
	C194.459595,65.903030 191.610641,63.190929 185.970230,62.816540 
	C184.318008,62.706875 182.652222,62.801376 180.766754,62.443790 
	C180.575073,62.223522 180.338150,62.075901 179.892960,61.112480 
	C179.892960,58.738426 179.892960,56.364376 179.892960,53.597675 
	C177.527710,53.731918 175.989288,53.819233 173.844009,53.940987 
	C173.844009,58.216217 173.844009,62.100880 173.206772,65.987801 
	C172.782104,65.999657 172.357452,66.011513 171.318527,65.641869 
M41.466007,57.971951 
	C36.769218,52.739902 32.072430,47.507854 26.825537,41.663013 
	C26.825537,55.250080 26.825537,67.788284 26.825537,80.201332 
	C29.089888,80.201332 30.985729,80.201332 33.282166,80.201332 
	C33.282166,73.239014 33.282166,66.666115 33.282166,58.770279 
	C40.947800,67.079643 47.772968,74.477966 55.237724,82.569588 
	C55.237724,68.920906 55.237724,56.506119 55.237724,44.017891 
	C53.032387,44.017891 51.119663,44.017891 48.592663,44.017891 
	C48.592663,50.942238 48.592663,57.612206 48.592663,64.282173 
	C48.198112,64.461121 47.803558,64.640068 47.409008,64.819008 
	C46.842972,64.001762 46.315681,63.154083 45.702671,62.373741 
	C44.504536,60.848541 43.258526,59.360950 42.849411,57.840919 
	C43.435707,57.671158 44.545166,57.424110 44.533146,57.342731 
	C43.973667,53.555332 44.339546,49.148155 42.469845,46.132217 
	C37.748493,38.516407 31.748394,31.704529 26.794125,24.217531 
	C24.039206,20.054235 20.879889,19.182234 16.051718,20.470642 
	C22.720879,29.374029 29.303440,37.913689 35.585094,46.669235 
	C38.119713,50.202057 39.996002,54.207195 41.466007,57.971951 
M251.821732,83.110893 
	C257.314209,78.828316 255.267822,72.735207 255.407089,67.296539 
	C255.659607,57.435883 252.384201,53.442959 242.850601,50.975880 
	C238.840164,49.938068 233.771393,50.023293 231.066223,47.544003 
	C225.906189,42.814823 220.194641,41.317158 213.788895,41.245010 
	C200.631882,41.096832 187.470749,41.302948 174.314072,41.140396 
	C171.222198,41.102200 167.941422,40.673698 165.108322,39.530609 
	C161.915390,38.242336 161.943787,34.991005 165.098709,33.577843 
	C167.430359,32.533451 170.205109,32.076336 172.787369,32.058212 
	C190.609100,31.933144 208.441803,32.326073 226.249405,31.809076 
	C232.395950,31.630627 238.604324,29.719055 244.533752,27.817429 
	C246.920837,27.051874 248.844864,24.351164 250.532120,22.182940 
	C251.064774,21.498461 250.143936,19.682909 249.888306,18.384998 
	C248.539627,18.940718 246.328018,19.178537 245.986588,20.105322 
	C244.182251,25.003202 240.169296,26.785324 235.746552,27.915602 
	C233.041382,28.606934 230.175934,28.947294 227.379944,28.961878 
	C209.890945,29.053102 192.399689,28.881874 174.912918,29.099106 
	C170.663498,29.151896 166.258041,29.836424 162.255951,31.202196 
	C160.165085,31.915733 157.429306,34.776924 157.477112,36.602833 
	C157.526550,38.489975 160.276474,41.096394 162.419388,41.955391 
	C165.717453,43.277435 169.498123,43.853035 173.087280,43.909973 
	C186.575790,44.123943 200.069794,43.969337 213.561493,44.019691 
	C217.851852,44.035706 221.968674,44.674408 225.158554,48.366116 
	C221.252213,49.309998 217.790573,49.881214 214.510193,50.989094 
	C204.910324,54.231247 202.835175,57.280056 202.836044,67.379318 
	C202.836273,70.044380 202.447739,72.786659 202.953979,75.352150 
	C203.432816,77.778755 204.852417,80.019737 206.185150,82.929977 
	C207.823227,84.004059 209.332092,85.417542 211.119949,86.098274 
	C224.852142,91.326828 238.333603,91.964043 251.821732,83.110893 
M90.744247,74.386574 
	C90.744247,76.630814 90.744247,78.875053 90.744247,81.186279 
	C92.915497,81.186279 94.356453,81.186279 96.029121,81.186279 
	C96.125237,79.676895 96.228111,78.382904 96.286430,77.086914 
	C96.485924,72.653290 98.914742,69.856331 102.775322,69.936890 
	C107.396370,70.033325 108.885727,73.264709 108.436104,77.051765 
	C107.980988,80.885048 106.538277,84.601074 105.417496,88.781219 
	C109.323051,87.610489 112.612282,85.459450 113.723114,81.088135 
	C115.329422,74.767067 113.132240,69.826996 107.254745,66.644150 
	C109.099281,65.232597 110.628593,64.062271 112.398521,62.707821 
	C105.432648,60.186844 102.096474,67.225853 96.092140,68.222992 
	C96.092140,63.203262 96.092140,58.631706 96.092140,53.678478 
	C94.043602,53.805225 92.518867,53.899567 90.745445,54.009289 
	C90.745445,60.824001 90.745445,67.120811 90.744247,74.386574 
M137.145706,76.541672 
	C136.868622,75.809250 136.591522,75.076820 136.059982,73.671783 
	C141.095261,73.671783 145.641510,73.671783 150.143173,73.671783 
	C150.397964,67.298363 147.670227,63.711510 142.444077,62.939320 
	C136.742264,62.096851 131.688187,65.249138 130.604645,70.323700 
	C129.661118,74.742577 132.373123,79.504723 136.923981,80.828453 
	C140.246719,81.794960 143.611404,81.978409 146.650940,79.027634 
	C143.026459,78.247780 140.385818,77.679611 137.145706,76.541672 
M69.841393,69.504089 
	C68.874626,75.689453 70.634216,79.287491 75.546486,81.169983 
	C80.449036,83.048752 86.338890,81.822929 88.218300,78.964813 
	C84.821068,78.316940 80.977203,78.187080 77.671448,76.786835 
	C74.243492,75.334824 73.682190,71.712082 75.641953,68.742157 
	C77.593475,65.784729 80.553375,65.228966 83.851189,67.471138 
	C84.953896,68.220863 86.726471,67.985336 89.309647,68.363815 
	C83.538857,60.381775 75.072060,61.218956 69.841393,69.504089 
M120.614471,81.301445 
	C123.371117,81.760292 124.553246,80.761696 124.400726,77.814293 
	C124.196815,73.873726 124.350296,69.914658 124.350296,66.131050 
	C126.298759,65.515610 127.644081,65.090675 130.517532,64.183075 
	C127.775856,62.846146 126.265419,62.109612 124.519707,61.258347 
	C124.398102,59.047112 124.263985,56.608234 124.106438,53.743462 
	C122.243698,53.833252 120.722137,53.906593 118.952065,53.991917 
	C118.952065,56.818478 118.952065,59.120789 118.952065,61.240021 
	C117.125763,62.094509 115.587868,62.814060 112.829239,64.104767 
	C115.805664,65.112305 117.284027,65.612740 118.530807,66.034782 
	C118.927879,71.233917 119.303017,76.145836 120.614471,81.301445 
M60.901371,76.404434 
	C60.970798,77.975266 61.040226,79.546089 61.122673,81.411484 
	C63.172844,81.241127 64.583809,81.123886 66.057312,81.001450 
	C66.057312,74.639839 66.057312,68.624275 66.057312,62.202808 
	C64.145386,62.309883 62.620602,62.395275 60.899387,62.491669 
	C60.899387,67.167412 60.899387,71.297020 60.901371,76.404434 
M62.763344,53.802555 
	C61.974728,55.146595 61.186108,56.490635 60.397488,57.834675 
	C61.599556,58.530769 62.881454,59.875809 63.981266,59.740517 
	C65.081909,59.605125 66.000587,57.990395 66.999023,57.024105 
	C65.856712,55.921478 64.714401,54.818851 62.763344,53.802555 
z"/>
<path fill="#464444" opacity="1.000000" stroke="none" 
	d="
M205.858276,82.342361 
	C204.852417,80.019737 203.432816,77.778755 202.953979,75.352150 
	C202.447739,72.786659 202.836273,70.044380 202.836044,67.379318 
	C202.835175,57.280056 204.910324,54.231247 214.510193,50.989094 
	C217.790573,49.881214 221.252213,49.309998 225.158554,48.366116 
	C221.968674,44.674408 217.851852,44.035706 213.561493,44.019691 
	C200.069794,43.969337 186.575790,44.123943 173.087280,43.909973 
	C169.498123,43.853035 165.717453,43.277435 162.419388,41.955391 
	C160.276474,41.096394 157.526550,38.489975 157.477112,36.602833 
	C157.429306,34.776924 160.165085,31.915733 162.255951,31.202196 
	C166.258041,29.836424 170.663498,29.151896 174.912918,29.099106 
	C192.399689,28.881874 209.890945,29.053102 227.379944,28.961878 
	C230.175934,28.947294 233.041382,28.606934 235.746552,27.915602 
	C240.169296,26.785324 244.182251,25.003202 245.986588,20.105322 
	C246.328018,19.178537 248.539627,18.940718 249.888306,18.384998 
	C250.143936,19.682909 251.064774,21.498461 250.532120,22.182940 
	C248.844864,24.351164 246.920837,27.051874 244.533752,27.817429 
	C238.604324,29.719055 232.395950,31.630627 226.249405,31.809076 
	C208.441803,32.326073 190.609100,31.933144 172.787369,32.058212 
	C170.205109,32.076336 167.430359,32.533451 165.098709,33.577843 
	C161.943787,34.991005 161.915390,38.242336 165.108322,39.530609 
	C167.941422,40.673698 171.222198,41.102200 174.314072,41.140396 
	C187.470749,41.302948 200.631882,41.096832 213.788895,41.245010 
	C220.194641,41.317158 225.906189,42.814823 231.066223,47.544003 
	C233.771393,50.023293 238.840164,49.938068 242.850601,50.975880 
	C252.384201,53.442959 255.659607,57.435883 255.407089,67.296539 
	C255.267822,72.735207 257.314209,78.828316 251.360672,82.933319 
	C250.249008,81.792892 249.598389,80.830048 249.030151,79.466537 
	C249.498795,74.529175 249.885056,69.992477 250.363144,64.377098 
	C243.097076,66.582443 236.120209,61.768246 230.220032,67.594742 
	C229.692139,68.116051 227.577133,67.235939 226.310745,66.728386 
	C225.519791,66.411369 224.952286,65.067070 224.260269,65.047638 
	C219.020767,64.900520 213.775253,64.967232 207.598526,64.967232 
	C208.253555,70.471245 208.812973,75.171959 208.993591,79.929001 
	C207.695953,80.771011 206.777115,81.556686 205.858276,82.342361 
M249.235046,59.549892 
	C245.035522,53.460743 238.631729,52.464367 233.024933,51.782055 
	C231.238068,53.644558 229.815369,55.943283 229.065598,55.741497 
	C227.435760,55.302864 226.149338,53.588230 224.190811,51.950596 
	C215.382370,52.556721 209.640945,56.096550 209.066055,61.995552 
	C211.578522,61.995552 214.104706,62.257496 216.553528,61.933922 
	C220.192001,61.453159 224.756546,64.057686 227.271683,58.981998 
	C227.393784,58.735611 229.959381,59.558880 231.299988,60.099953 
	C232.476685,60.574871 233.505569,61.851196 234.643738,61.909119 
	C238.964172,62.129009 243.305069,62.071911 247.631378,61.920605 
	C248.299088,61.897259 248.930588,60.839218 249.235046,59.549892 
z"/>
<path fill="#090909" opacity="1.000000" stroke="none" 
	d="
M42.032333,57.857788 
	C43.258526,59.360950 44.504536,60.848541 45.702671,62.373741 
	C46.315681,63.154083 46.842972,64.001762 47.409008,64.819008 
	C47.803558,64.640068 48.198112,64.461121 48.592663,64.282173 
	C48.592663,57.612206 48.592663,50.942238 48.592663,44.017891 
	C51.119663,44.017891 53.032387,44.017891 55.237724,44.017891 
	C55.237724,56.506119 55.237724,68.920906 55.237724,82.569588 
	C47.772968,74.477966 40.947800,67.079643 33.282166,58.770279 
	C33.282166,66.666115 33.282166,73.239014 33.282166,80.201332 
	C30.985729,80.201332 29.089888,80.201332 26.825537,80.201332 
	C26.825537,67.788284 26.825537,55.250080 26.825537,41.663013 
	C32.072430,47.507854 36.769218,52.739902 41.789539,57.944290 
	C42.113071,57.916630 42.032333,57.857788 42.032333,57.857788 
z"/>
<path fill="#4B5C68" opacity="1.000000" stroke="none" 
	d="
M90.744843,73.902100 
	C90.745445,67.120811 90.745445,60.824001 90.745445,54.009289 
	C92.518867,53.899567 94.043602,53.805225 96.092140,53.678478 
	C96.092140,58.631706 96.092140,63.203262 96.092140,68.222992 
	C102.096474,67.225853 105.432648,60.186844 112.398521,62.707821 
	C110.628593,64.062271 109.099281,65.232597 107.254745,66.644150 
	C113.132240,69.826996 115.329422,74.767067 113.723114,81.088135 
	C112.612282,85.459450 109.323051,87.610489 105.417496,88.781219 
	C106.538277,84.601074 107.980988,80.885048 108.436104,77.051765 
	C108.885727,73.264709 107.396370,70.033325 102.775322,69.936890 
	C98.914742,69.856331 96.485924,72.653290 96.286430,77.086914 
	C96.228111,78.382904 96.125237,79.676895 96.029121,81.186279 
	C94.356453,81.186279 92.915497,81.186279 90.744247,81.186279 
	C90.744247,78.875053 90.744247,76.630814 90.744843,73.902100 
z"/>
<path fill="#52636E" opacity="1.000000" stroke="none" 
	d="
M180.992661,62.802299 
	C182.652222,62.801376 184.318008,62.706875 185.970230,62.816540 
	C191.610641,63.190929 194.459595,65.903030 194.880905,71.547401 
	C195.102753,74.519508 194.920105,77.521820 194.920105,81.150986 
	C193.141327,81.232552 191.463104,81.309517 189.112564,81.417313 
	C189.112564,77.503372 189.141113,74.062416 189.103775,70.622185 
	C189.072250,67.717468 187.909561,65.839653 184.659851,65.878212 
	C181.575317,65.914825 180.044098,67.550117 179.959747,70.502319 
	C179.860962,73.959946 179.936646,77.422562 179.936646,81.219589 
	C177.842743,81.219589 176.381653,81.219589 174.507874,80.635315 
	C174.011459,75.362549 173.927734,70.674042 173.844009,65.985542 
	C173.844009,62.100880 173.844009,58.216217 173.844009,53.940987 
	C175.989288,53.819233 177.527710,53.731918 179.892960,53.597675 
	C179.892960,56.364376 179.892960,58.738426 179.955826,61.831299 
	C180.343353,62.634182 180.667999,62.718243 180.992661,62.802299 
z"/>
<path fill="#121212" opacity="1.000000" stroke="none" 
	d="
M42.142483,57.957008 
	C39.996002,54.207195 38.119713,50.202057 35.585094,46.669235 
	C29.303440,37.913689 22.720879,29.374029 16.051718,20.470642 
	C20.879889,19.182234 24.039206,20.054235 26.794125,24.217531 
	C31.748394,31.704529 37.748493,38.516407 42.469845,46.132217 
	C44.339546,49.148155 43.973667,53.555332 44.533146,57.342731 
	C44.545166,57.424110 43.435707,57.671158 42.440872,57.849354 
	C42.032333,57.857788 42.113071,57.916630 42.142483,57.957008 
z"/>
<path fill="#4F616C" opacity="1.000000" stroke="none" 
	d="
M137.445435,76.826553 
	C140.385818,77.679611 143.026459,78.247780 146.650940,79.027634 
	C143.611404,81.978409 140.246719,81.794960 136.923981,80.828453 
	C132.373123,79.504723 129.661118,74.742577 130.604645,70.323700 
	C131.688187,65.249138 136.742264,62.096851 142.444077,62.939320 
	C147.670227,63.711510 150.397964,67.298363 150.143173,73.671783 
	C145.641510,73.671783 141.095261,73.671783 136.059982,73.671783 
	C136.591522,75.076820 136.868622,75.809250 137.445435,76.826553 
M144.596725,68.968140 
	C142.901566,67.996376 141.271057,66.474159 139.486389,66.264572 
	C138.457947,66.143799 137.180283,68.145157 136.014801,69.191322 
	C136.231415,69.557793 136.448029,69.924271 136.664658,70.290749 
	C139.261032,70.109558 141.857407,69.928375 144.596725,68.968140 
z"/>
<path fill="#50616C" opacity="1.000000" stroke="none" 
	d="
M69.957016,69.143166 
	C75.072060,61.218956 83.538857,60.381775 89.309647,68.363815 
	C86.726471,67.985336 84.953896,68.220863 83.851189,67.471138 
	C80.553375,65.228966 77.593475,65.784729 75.641953,68.742157 
	C73.682190,71.712082 74.243492,75.334824 77.671448,76.786835 
	C80.977203,78.187080 84.821068,78.316940 88.218300,78.964813 
	C86.338890,81.822929 80.449036,83.048752 75.546486,81.169983 
	C70.634216,79.287491 68.874626,75.689453 69.957016,69.143166 
z"/>
<path fill="#F0F2F3" opacity="1.000000" stroke="none" 
	d="
M173.525391,65.986671 
	C173.927734,70.674042 174.011459,75.362549 174.077728,80.515686 
	C173.577301,80.741623 173.094299,80.502914 172.383545,79.748238 
	C171.077866,79.008682 169.999863,78.785583 168.922058,78.561440 
	C166.243805,78.004463 163.276947,77.990440 160.957474,76.758049 
	C157.753952,75.055916 156.956833,71.702026 159.074799,68.689163 
	C161.093262,65.817863 164.233688,64.832916 167.177353,67.509499 
	C169.947632,70.028419 171.050858,68.758553 171.932785,66.023369 
	C172.357452,66.011513 172.782104,65.999657 173.525391,65.986671 
z"/>
<path fill="#4F616C" opacity="1.000000" stroke="none" 
	d="
M171.625656,65.832619 
	C171.050858,68.758553 169.947632,70.028419 167.177353,67.509499 
	C164.233688,64.832916 161.093262,65.817863 159.074799,68.689163 
	C156.956833,71.702026 157.753952,75.055916 160.957474,76.758049 
	C163.276947,77.990440 166.243805,78.004463 168.922058,78.561440 
	C169.999863,78.785583 171.077866,79.008682 172.142151,79.625107 
	C169.420593,80.683525 166.738602,81.744583 163.998810,81.924286 
	C159.614182,82.211876 155.761063,80.718132 153.795181,76.401756 
	C152.054306,72.579399 152.592529,68.889877 155.601486,65.883377 
	C159.147980,62.339775 163.529053,62.144390 168.037537,63.516769 
	C169.235809,63.881516 170.230408,64.915276 171.625656,65.832619 
z"/>
<path fill="#4A5C67" opacity="1.000000" stroke="none" 
	d="
M120.146317,81.179596 
	C119.303017,76.145836 118.927879,71.233917 118.530807,66.034782 
	C117.284027,65.612740 115.805664,65.112305 112.829239,64.104767 
	C115.587868,62.814060 117.125763,62.094509 118.952065,61.240021 
	C118.952065,59.120789 118.952065,56.818478 118.952065,53.991917 
	C120.722137,53.906593 122.243698,53.833252 124.106438,53.743462 
	C124.263985,56.608234 124.398102,59.047112 124.519707,61.258347 
	C126.265419,62.109612 127.775856,62.846146 130.517532,64.183075 
	C127.644081,65.090675 126.298759,65.515610 124.350296,66.131050 
	C124.350296,69.914658 124.196815,73.873726 124.400726,77.814293 
	C124.553246,80.761696 123.371117,81.760292 120.146317,81.179596 
z"/>
<path fill="#484344" opacity="1.000000" stroke="none" 
	d="
M248.947784,79.867203 
	C249.598389,80.830048 250.249008,81.792892 251.032318,83.081024 
	C238.333603,91.964043 224.852142,91.326828 211.119949,86.098274 
	C209.332092,85.417542 207.823227,84.004059 206.021713,82.636169 
	C206.777115,81.556686 207.695953,80.771011 209.257202,80.116241 
	C220.250153,89.323418 238.127930,89.149452 248.947784,79.867203 
z"/>
<path fill="#495B66" opacity="1.000000" stroke="none" 
	d="
M60.900379,75.915535 
	C60.899387,71.297020 60.899387,67.167412 60.899387,62.491669 
	C62.620602,62.395275 64.145386,62.309883 66.057312,62.202808 
	C66.057312,68.624275 66.057312,74.639839 66.057312,81.001450 
	C64.583809,81.123886 63.172844,81.241127 61.122673,81.411484 
	C61.040226,79.546089 60.970798,77.975266 60.900379,75.915535 
z"/>
<path fill="#52646F" opacity="1.000000" stroke="none" 
	d="
M63.167717,53.759388 
	C64.714401,54.818851 65.856712,55.921478 66.999023,57.024109 
	C66.000587,57.990395 65.081909,59.605125 63.981266,59.740517 
	C62.881454,59.875809 61.599556,58.530769 60.397488,57.834675 
	C61.186108,56.490635 61.974728,55.146595 63.167717,53.759388 
z"/>
<path fill="#F0F2F3" opacity="1.000000" stroke="none" 
	d="
M180.879700,62.623047 
	C180.667999,62.718243 180.343353,62.634182 180.037323,62.275520 
	C180.338150,62.075901 180.575073,62.223522 180.879700,62.623047 
z"/>
<path fill="#F06C7D" opacity="1.000000" stroke="none" 
	d="
M249.030167,79.466530 
	C238.127930,89.149452 220.250153,89.323418 209.636017,80.059921 
	C208.812973,75.171959 208.253555,70.471245 207.598526,64.967232 
	C213.775253,64.967232 219.020767,64.900520 224.260269,65.047638 
	C224.952286,65.067070 225.519791,66.411369 226.310745,66.728386 
	C227.577133,67.235939 229.692139,68.116051 230.220032,67.594742 
	C236.120209,61.768246 243.097076,66.582443 250.363144,64.377098 
	C249.885056,69.992477 249.498795,74.529175 249.030167,79.466530 
z"/>
<path fill="#F9F9F9" opacity="1.000000" stroke="none" 
	d="
M249.406937,59.904785 
	C248.930588,60.839218 248.299088,61.897259 247.631378,61.920605 
	C243.305069,62.071911 238.964172,62.129009 234.643738,61.909119 
	C233.505569,61.851196 232.476685,60.574871 231.299988,60.099953 
	C229.959381,59.558880 227.393784,58.735611 227.271683,58.981998 
	C224.756546,64.057686 220.192001,61.453159 216.553528,61.933922 
	C214.104706,62.257496 211.578522,61.995552 209.066055,61.995552 
	C209.640945,56.096550 215.382370,52.556721 224.190811,51.950596 
	C226.149338,53.588230 227.435760,55.302864 229.065598,55.741497 
	C229.815369,55.943283 231.238068,53.644558 233.024933,51.782055 
	C238.631729,52.464367 245.035522,53.460743 249.406937,59.904785 
z"/>
<path fill="#EEF0F1" opacity="1.000000" stroke="none" 
	d="
M144.525253,69.357666 
	C141.857407,69.928375 139.261032,70.109558 136.664658,70.290749 
	C136.448029,69.924271 136.231415,69.557793 136.014801,69.191322 
	C137.180283,68.145157 138.457947,66.143799 139.486389,66.264572 
	C141.271057,66.474159 142.901566,67.996376 144.525253,69.357666 
z"/>
</svg>